<?xml version="1.0" encoding="utf-8"?>
<!-- Generator: Adobe Illustrator 21.1.0, SVG Export Plug-In . SVG Version: 6.00 Build 0)  -->
<svg version="1.1" id="Capa_1" xmlns="http://www.w3.org/2000/svg" xmlns:xlink="http://www.w3.org/1999/xlink" x="0px" y="0px"
	 viewBox="0 0 164 36" style="enable-background:new 0 0 164 36;" xml:space="preserve">
<style type="text/css">
	.st0{fill:#EFEFEF;}
	.st1{fill:#1B3B13;}
</style>
<g>
	<g>
		<path class="st0" d="M18.2,22.8c-2.6,0.5-3.9,0.8-6.6,1.3c1,4,1.5,6,2.5,10c-1.6,0.3-2.4,0.5-4.1,0.9c-2.6-9.8-3.8-14.7-6.4-24.5
			C8.5,9.5,10.9,9,15.8,8.1c0.4,1.7,0.5,2.5,0.9,4.2c-3.1,0.6-4.6,0.9-7.6,1.5c0.6,2.5,0.9,3.8,1.5,6.3c2.7-0.6,4-0.8,6.7-1.3
			C17.6,20.4,17.8,21.2,18.2,22.8z"/>
		<path class="st0" d="M36.2,19.9c0.5,3.3,0.3,6-0.7,8c-1,2-2.6,3.2-4.9,3.6c-2.3,0.4-4.2-0.3-5.9-1.8c-1.7-1.6-2.9-4-3.6-7.3
			c-0.4-1.7-0.5-2.5-0.9-4.2c-0.7-3.4-0.6-6.2,0.4-8.3c1-2.1,2.8-3.4,5.3-3.8c2.5-0.4,4.6,0.3,6.3,2c1.7,1.7,2.8,4.2,3.4,7.7
			C35.8,17.3,35.9,18.2,36.2,19.9z M31.2,16.3c-0.4-2.2-1-3.9-1.7-4.9c-0.7-1-1.7-1.4-2.9-1.2c-1.2,0.2-1.9,0.8-2.3,2
			c-0.4,1.1-0.3,2.8,0.1,4.9c0.3,1.8,0.5,2.6,0.9,4.4c0.4,2.2,1,3.7,1.8,4.7c0.7,0.9,1.7,1.3,2.8,1.1c1.1-0.2,1.8-0.8,2.2-1.9
			c0.4-1.1,0.4-2.7,0-4.8C31.6,18.9,31.5,18.1,31.2,16.3z"/>
		<path class="st0" d="M54.1,18c0.3,3.4-0.1,6-1.2,8c-1.1,2-2.8,3.1-5.1,3.3c-2.3,0.2-4.2-0.5-5.8-2.1c-1.6-1.7-2.6-4.2-3.2-7.4
			c-0.3-1.7-0.4-2.6-0.6-4.3C37.7,12,38,9.2,39.2,7.1c1.1-2.1,3-3.3,5.5-3.5c2.5-0.3,4.5,0.5,6.2,2.3c1.6,1.8,2.6,4.4,2.9,7.8
			C53.9,15.4,54,16.2,54.1,18z M49.4,14.1c-0.3-2.3-0.7-3.9-1.4-5c-0.7-1-1.6-1.5-2.8-1.4c-1.2,0.1-2,0.7-2.4,1.9
			c-0.4,1.1-0.5,2.8-0.2,4.9c0.2,1.8,0.4,2.7,0.6,4.4c0.3,2.2,0.8,3.8,1.5,4.7c0.7,1,1.6,1.4,2.7,1.3c1.1-0.1,1.8-0.7,2.3-1.8
			c0.4-1.1,0.5-2.7,0.3-4.8C49.7,16.8,49.6,15.9,49.4,14.1z"/>
		<path class="st0" d="M69.3,6.4c-2.2,0.1-3.3,0.1-5.4,0.2c0.5,8.4,0.8,12.5,1.3,20.9c-1.7,0.1-2.5,0.1-4.2,0.2
			c-0.6-8.4-0.9-12.5-1.6-20.9c-2.1,0.1-3.2,0.2-5.3,0.4c-0.2-1.7-0.2-2.5-0.4-4.2c6.2-0.5,9.3-0.7,15.5-0.9
			C69.2,3.9,69.2,4.7,69.3,6.4z"/>
		<path class="st0" d="M75.5,18.5c-2.8,0.1-4.3,0.1-7.1,0.2c-0.1-1.6-0.1-2.4-0.2-4.1c2.9-0.1,4.3-0.2,7.2-0.2
			C75.4,16,75.5,16.8,75.5,18.5z"/>
		<path class="st0" d="M84.8,2c1.6,7.3,2.4,10.9,3.8,18.2c1.7-7.2,2.7-10.9,4.6-18.1c2.4,0.1,3.5,0.1,5.9,0.2
			c-0.5,10.1-0.8,15.1-1.3,25.1c-1.7-0.1-2.5-0.1-4.2-0.2c0.1-2.7,0.2-4.1,0.3-6.8c0.3-4.2,0.5-6.3,0.8-10.5c-2,6.9-3,10.3-4.8,17.2
			c-1.1,0-1.7,0-2.8-0.1c-1.5-6.9-2.3-10.4-4.1-17.3c0.2,4.2,0.2,6.3,0.4,10.5c0,2.7,0,4.1,0,6.8c-1.7,0-2.5,0-4.1,0
			C79.1,17.1,79,12,78.9,2C81.3,2,82.5,2,84.8,2z"/>
		<path class="st0" d="M135.4,22c-0.8-0.1-1.3-0.2-2.1-0.3c-0.6,3.6-1,5.4-1.6,9.1c-1.6-0.2-2.5-0.4-4.1-0.6c1.6-10,2.4-14.9,4-24.9
			c2.9,0.4,4.3,0.6,7.1,1c2.2,0.3,3.8,1.3,4.8,2.8c0.9,1.5,1.2,3.5,0.7,5.8c-0.7,3.3-2.2,5.4-4.5,6.4c0.7,4.3,1,6.4,1.6,10.7
			c0,0.1,0,0.1,0,0.2c-1.8-0.3-2.6-0.5-4.4-0.7C136.3,27.7,136,25.8,135.4,22z M134.1,17.5c1,0.1,1.5,0.2,2.4,0.4
			c0.9,0.1,1.6-0.1,2.1-0.7c0.6-0.6,0.9-1.4,1.2-2.6c0.5-2.5-0.1-3.9-1.8-4.1c-1-0.2-1.5-0.2-2.6-0.4
			C134.8,13,134.6,14.5,134.1,17.5z"/>
		<path class="st0" d="M156.6,24.2c-2.6-0.6-3.9-0.8-6.6-1.4c-0.6,2.6-0.9,3.9-1.5,6.5c3.1,0.6,4.6,0.9,7.6,1.6
			c-0.4,1.6-0.6,2.5-1.1,4.1c-4.6-1-6.9-1.5-11.6-2.3c2.1-9.9,3.2-14.8,5.4-24.7c5,0.9,7.6,1.4,12.6,2.5c-0.4,1.6-0.6,2.5-1.1,4.1
			c-3.2-0.7-4.8-1-8-1.7c-0.5,2.3-0.8,3.5-1.4,5.8c2.7,0.5,4,0.8,6.7,1.4C157.2,21.8,157,22.6,156.6,24.2z"/>
	</g>
</g>
<ellipse class="st0" cx="113.9" cy="15.5" rx="14.6" ry="14.5"/>
<path class="st1" d="M120.5,2.9c-12.7-5.9-25.1,6.5-19.2,19.2c1.2,2.7,3.4,4.8,6,6C120,34,132.4,21.6,126.5,9
	C125.3,6.3,123.2,4.2,120.5,2.9z M124.5,7.7l-1.2,3.7c-0.1,0.2-0.3,0.4-0.5,0.5l-3.7,1.4c-0.3,0.1-0.6,0.1-0.8-0.1l-3.6-2.6
	c-0.2-0.2-0.3-0.4-0.3-0.7V6.1c0-0.3,0.1-0.5,0.3-0.7l3.3-2.4C120.7,3.9,122.9,5.5,124.5,7.7z M109.8,3l3.3,2.4
	c0.2,0.2,0.3,0.4,0.3,0.7v3.8c0,0.3-0.1,0.5-0.3,0.7l-3.6,2.6c-0.2,0.2-0.5,0.2-0.8,0.1l-3.6-1.3c-0.2-0.1-0.4-0.3-0.5-0.5l-1.3-3.9
	C105,5.5,107.2,3.9,109.8,3z M107.4,23.2h-4.2c-1.5-2.1-2.4-4.7-2.4-7.5l3.5-2.5c0.2-0.2,0.5-0.2,0.8-0.1l3.5,1.3
	c0.2,0.1,0.4,0.3,0.5,0.5l1.4,4.2c0.1,0.3,0,0.5-0.1,0.7l-2.2,3C107.9,23,107.7,23.2,107.4,23.2z M110,28.1l-1.3-4
	c-0.1-0.3,0-0.5,0.1-0.7l2.2-3.1c0.2-0.2,0.4-0.3,0.7-0.3h4.5c0.3,0,0.5,0.1,0.7,0.3l2.3,3.1c0.2,0.2,0.2,0.5,0.1,0.8l-1.3,4
	c-1.3,0.4-2.6,0.6-4,0.6C112.5,28.7,111.2,28.5,110,28.1z M124.7,23.2h-4.1c-0.3,0-0.5-0.1-0.7-0.3l-2.3-3.1
	c-0.2-0.2-0.2-0.5-0.1-0.8l1.4-4.3c0.1-0.2,0.3-0.4,0.5-0.5l3.6-1.3c0.3-0.1,0.6-0.1,0.8,0.1l3.4,2.5
	C127.1,18.4,126.2,21,124.7,23.2z"/>
</svg>
