<?xml version="1.0" encoding="utf-8"?>
<!-- Generator: Adobe Illustrator 21.1.0, SVG Export Plug-In . SVG Version: 6.00 Build 0)  -->
<svg version="1.1" id="Capa_1" xmlns="http://www.w3.org/2000/svg" xmlns:xlink="http://www.w3.org/1999/xlink" x="0px" y="0px"
	 viewBox="0 0 100 100" style="enable-background:new 0 0 100 100;" xml:space="preserve">
<style type="text/css">
	.st0{fill:#2F9E13;}
	.st1{fill:#FFFFFF;}
	.st2{fill:#EFEFEF;}
	.st3{fill:#1B3B13;}
</style>
<g>
	<g>
		<path class="st0" d="M65.6,45.5c2.4,0.3,4.7,0.6,7,1V25v0c-1.3-0.6-2.6-1.1-3.9-1.6c1.2,2.7,1.9,5.6,1.9,8.6
			C70.6,37,68.8,41.8,65.6,45.5z"/>
		<path class="st0" d="M50,64.1c-8,0-15.7,0.7-22.7,2.1v8.5L50,87.5l22.7-12.8v-8.5C65.7,64.8,58,64.1,50,64.1z"/>
		<path class="st0" d="M34.2,45.5c-3.2-3.7-5-8.5-5-13.4c0-3,0.6-5.9,1.8-8.5c-1.2,0.5-2.5,0.9-3.7,1.5v0v21.4
			C29.6,46.1,31.8,45.8,34.2,45.5z"/>
	</g>
	<path class="st1" d="M85.3,69.7l2.1-8.4c0.5,0.2,0.9,0.3,1.4,0.5c4,1.5,7.4,3.3,10.2,5.2l-5.5,5.9l1.6,9.8
		c-1.7-1.6-5.4-4.2-12.3-6.5c-1.9-0.6-3.9-1.2-5.9-1.7L85.3,69.7z"/>
	<path class="st1" d="M14.7,69.7l-2.1-8.4c-0.5,0.2-0.9,0.3-1.4,0.5C7.2,63.3,3.8,65,1,67l5.5,5.9l-1.6,9.8
		c1.7-1.6,5.4-4.2,12.3-6.5c1.9-0.6,3.9-1.2,5.9-1.7L14.7,69.7z"/>
	<polygon class="st2" points="49.8,81.4 50.5,82.7 51.9,82.9 50.9,83.9 51.1,85.4 49.8,84.7 48.5,85.4 48.8,83.9 47.7,82.9 
		49.2,82.7 	"/>
	<polygon class="st2" points="54,80.7 54.5,81.5 55.4,81.7 54.7,82.4 54.9,83.3 54,82.9 53.2,83.3 53.3,82.4 52.6,81.7 53.6,81.5 	
		"/>
	<polygon class="st2" points="57.2,79.8 57.5,80.5 58.3,80.6 57.7,81.1 57.9,81.8 57.2,81.5 56.5,81.8 56.7,81.1 56.1,80.6 
		56.9,80.5 	"/>
	<g>
		<polygon class="st2" points="45.7,80.7 45.2,81.5 44.3,81.7 45,82.4 44.8,83.3 45.7,82.9 46.5,83.3 46.4,82.4 47.1,81.7 
			46.1,81.5 		"/>
		<polygon class="st2" points="42.5,79.8 42.2,80.5 41.4,80.6 41.9,81.1 41.8,81.8 42.5,81.5 43.2,81.8 43,81.1 43.6,80.6 
			42.8,80.5 		"/>
	</g>
	<g>
		<path class="st1" d="M15.9,67.4c0.4-0.1,0.8-0.3,1.3-0.4c9-3,20.7-4.6,32.8-4.6s23.8,1.6,32.8,4.6c0.4,0.1,0.9,0.3,1.3,0.4
			l3.8-15.2c-10.3-3.7-23.7-5.8-37.9-5.8c-14.1,0-27.5,2-37.9,5.8L15.9,67.4z"/>
		<g>
			<path class="st1" d="M43,44.8l-0.5-1.6l3.6-5h6.6c0.8,0,1.5,0.4,1.9,1l3,4L57,44.8c2.4,0.1,4.7,0.3,7,0.5
				c5.1-5.4,7.1-13.8,3.2-22.2c-1.7-3.7-4.7-6.6-8.4-8.3c-14.2-6.5-28.1,3.8-28.1,17.3c0,5.1,2,9.8,5.3,13.2
				C38.3,45.1,40.6,44.9,43,44.8z M65,42.6h-6.8l-3-4c-0.5-0.6-0.6-1.4-0.3-2.1l1.7-5.2c0.2-0.7,0.8-1.2,1.4-1.5l4.7-1.7l5.6,4.1
				C68.3,36.1,67.1,39.7,65,42.6z M50.4,18.6C50.4,18.6,50.4,18.6,50.4,18.6l5.4-4c3.6,1.2,6.6,3.5,8.8,6.4l-1.6,5
				c-0.2,0.7-0.8,1.2-1.4,1.5l-4.9,1.8l-5.4-3.9c-0.6-0.4-1-1.2-1-1.9V18.6z M44.1,14.6l5.4,4c0,0,0,0,0,0v5c0,0.8-0.4,1.5-1,1.9
				l-5.4,3.9l-4.7-1.7c-0.7-0.2-1.2-0.8-1.4-1.5L35.3,21C37.5,18.1,40.6,15.8,44.1,14.6z M31.6,32.3l5.6-4.1l5.7,2.1l2,6.2
				c0.2,0.7,0.1,1.5-0.3,2.1l-2.9,3.9c0,0,0,0,0,0h-6.9C32.8,39.7,31.6,36.1,31.6,32.3z"/>
		</g>
	</g>
	<g>
		<path class="st1" d="M15.9,67.4c0.4-0.1,0.8-0.3,1.3-0.4c9-3,20.7-4.6,32.8-4.6s23.8,1.6,32.8,4.6c0.4,0.1,0.9,0.3,1.3,0.4
			l3.8-15.2c-10.3-3.7-23.7-5.8-37.9-5.8c-14.1,0-27.5,2-37.9,5.8L15.9,67.4z"/>
		<path class="st1" d="M25.6,46.8V25v-1.2l1.1-0.5c1.9-0.9,3.9-1.6,5.8-2.2c0.8-1.3,1.8-2.6,3-3.7c3.9-3.9,9.1-6,14.6-6
			c5.5,0,10.7,2.1,14.6,6c1.1,1.1,2.1,2.4,3,3.7c2,0.6,3.9,1.4,5.8,2.2l1.1,0.5V25v21.7c0.6,0.1,1.2,0.2,1.8,0.3V25v-1.2v-1.2
			l-1.1-0.5l-1.1-0.5c-1.8-0.8-3.6-1.5-5.4-2.1c-0.8-1.2-1.8-2.4-2.9-3.5C61.6,12,56,9.6,50,9.6S38.4,12,34.1,16.2
			c-1.1,1.1-2,2.2-2.9,3.5c-1.8,0.6-3.6,1.3-5.4,2.1l-1.1,0.5l-1.1,0.5v1.2V25v22.1C24.4,47,25,46.9,25.6,46.8z"/>
	</g>
	<path class="st1" d="M15.9,67.4c0.4-0.1,0.8-0.3,1.3-0.4c9-3,20.7-4.6,32.8-4.6s23.8,1.6,32.8,4.6c0.4,0.1,0.9,0.3,1.3,0.4
		l3.8-15.2c-10.3-3.7-23.7-5.8-37.9-5.8c-14.1,0-27.5,2-37.9,5.8L15.9,67.4z"/>
	<path class="st1" d="M83.3,69c-0.4-0.1-0.7-0.2-1-0.3c-1.9-0.6-3.9-1.2-6-1.7c-0.6-0.1-1.2-0.3-1.8-0.4v8.2v1l-0.9,0.5L50.9,89
		L50,89.5L49.1,89L26.5,76.2l-0.9-0.5v-1v-8.2c-0.6,0.1-1.2,0.3-1.8,0.4c-2.1,0.5-4.1,1.1-6,1.7c-0.3,0.1-0.7,0.2-1.1,0.4l7.1,4.1
		v1.6v1v1l0.9,0.5l0.9,0.5l22.7,12.8l0.9,0.5l0.9,0.5l0.9-0.5l0.9-0.5l22.7-12.8l0.9-0.5l0.9-0.5v-1v-1v-1.6L83.3,69
		C83.3,69,83.3,69,83.3,69z"/>
</g>
<g>
	<g>
		<path class="st3" d="M36.8,68.9c-0.7,0.1-1,0.2-1.6,0.3c0.1,0.7,0.2,1,0.3,1.7c-0.4,0.1-0.6,0.1-1,0.2c-0.3-1.7-0.5-2.5-0.8-4.2
			c1.2-0.2,1.8-0.3,3-0.5c0,0.3,0.1,0.4,0.1,0.7c-0.8,0.1-1.1,0.2-1.9,0.3c0.1,0.4,0.1,0.7,0.2,1.1c0.7-0.1,1-0.2,1.7-0.3
			C36.8,68.5,36.8,68.6,36.8,68.9z"/>
		<path class="st3" d="M41.3,68.3c0.1,0.6-0.1,1-0.4,1.4c-0.3,0.4-0.7,0.6-1.3,0.6c-0.6,0.1-1,0-1.4-0.3c-0.4-0.3-0.6-0.7-0.7-1.2
			c0-0.3-0.1-0.4-0.1-0.7c-0.1-0.6,0-1.1,0.3-1.4c0.3-0.4,0.8-0.6,1.4-0.7c0.6-0.1,1.1,0,1.5,0.3c0.4,0.3,0.6,0.7,0.7,1.3
			C41.3,67.9,41.3,68,41.3,68.3z M40.2,67.7c0-0.4-0.1-0.7-0.3-0.8c-0.2-0.2-0.4-0.2-0.7-0.2c-0.3,0-0.5,0.2-0.6,0.4
			c-0.1,0.2-0.1,0.5-0.1,0.9c0,0.3,0.1,0.5,0.1,0.8c0,0.4,0.2,0.6,0.3,0.8c0.2,0.2,0.4,0.2,0.7,0.2c0.3,0,0.5-0.1,0.6-0.3
			c0.1-0.2,0.2-0.5,0.1-0.8C40.2,68.2,40.2,68,40.2,67.7z"/>
		<path class="st3" d="M45.8,68c0,0.6-0.1,1-0.4,1.4c-0.3,0.3-0.8,0.5-1.3,0.6c-0.6,0-1-0.1-1.4-0.4c-0.4-0.3-0.6-0.7-0.6-1.3
			c0-0.3,0-0.4-0.1-0.7c-0.1-0.6,0.1-1.1,0.4-1.4s0.8-0.6,1.4-0.6c0.6,0,1.1,0.1,1.5,0.4c0.4,0.3,0.6,0.8,0.6,1.3
			C45.7,67.6,45.8,67.7,45.8,68z M44.7,67.3c0-0.4-0.1-0.7-0.3-0.9c-0.1-0.2-0.4-0.3-0.7-0.2c-0.3,0-0.5,0.1-0.6,0.3
			C43,66.8,43,67,43,67.4c0,0.3,0,0.5,0.1,0.8c0,0.4,0.1,0.6,0.3,0.8c0.1,0.2,0.4,0.2,0.6,0.2c0.3,0,0.5-0.1,0.6-0.3
			c0.1-0.2,0.2-0.5,0.2-0.8C44.7,67.8,44.7,67.6,44.7,67.3z"/>
		<path class="st3" d="M49.6,66.1c-0.5,0-0.8,0-1.3,0c0,1.4,0,2.1,0.1,3.6c-0.4,0-0.6,0-1,0c0-1.4-0.1-2.1-0.1-3.6
			c-0.5,0-0.8,0-1.3,0c0-0.3,0-0.4,0-0.7c1.5-0.1,2.3-0.1,3.8-0.1C49.6,65.7,49.6,65.8,49.6,66.1z"/>
		<path class="st3" d="M50.2,69.7c0-1.7,0-2.6,0-4.3c0.7,0,1,0,1.7,0c0.6,0,1,0.1,1.3,0.3c0.3,0.2,0.4,0.5,0.4,0.9
			c0,0.2-0.1,0.4-0.2,0.6c-0.1,0.2-0.3,0.3-0.5,0.3c0.2,0.1,0.4,0.2,0.5,0.4s0.2,0.4,0.2,0.6c0,0.4-0.2,0.7-0.5,0.9
			c-0.3,0.2-0.7,0.3-1.2,0.3C51.3,69.7,50.9,69.7,50.2,69.7z M51.3,67.2c0.2,0,0.3,0,0.6,0c0.4,0,0.6-0.2,0.6-0.5
			c0-0.2,0-0.3-0.1-0.4c-0.1-0.1-0.3-0.1-0.5-0.1c-0.2,0-0.3,0-0.6,0C51.3,66.5,51.3,66.8,51.3,67.2z M51.3,67.8c0,0.5,0,0.7,0,1.1
			c0.3,0,0.4,0,0.7,0c0.2,0,0.3,0,0.4-0.1c0.1-0.1,0.2-0.2,0.2-0.4c0-0.4-0.2-0.6-0.5-0.6C51.8,67.8,51.6,67.8,51.3,67.8z"/>
		<path class="st3" d="M56.8,69.1C56.3,69.1,56,69,55.4,69c-0.1,0.3-0.2,0.5-0.3,0.9c-0.4,0-0.7,0-1.1-0.1c0.7-1.7,1.1-2.5,1.9-4.2
			c0.4,0,0.6,0,1,0.1c0.5,1.8,0.8,2.7,1.3,4.4c-0.4,0-0.7-0.1-1.1-0.1C57,69.7,56.9,69.5,56.8,69.1z M55.7,68.3c0.4,0,0.6,0,1,0.1
			c-0.1-0.6-0.2-0.9-0.4-1.6C56,67.4,55.9,67.7,55.7,68.3z"/>
		<path class="st3" d="M59.7,69.6c0.7,0.1,1.1,0.1,1.8,0.2c0,0.3-0.1,0.4-0.1,0.7c-1.1-0.2-1.7-0.2-2.9-0.4c0.2-1.7,0.3-2.6,0.5-4.3
			c0.4,0,0.7,0.1,1.1,0.1C60,67.4,59.9,68.2,59.7,69.6z"/>
		<path class="st3" d="M63.2,70.1c0.7,0.1,1.1,0.2,1.8,0.3c-0.1,0.3-0.1,0.4-0.1,0.7c-1.1-0.2-1.7-0.3-2.8-0.5
			c0.3-1.7,0.4-2.6,0.7-4.3c0.4,0.1,0.7,0.1,1.1,0.2C63.6,68,63.5,68.7,63.2,70.1z"/>
		<path class="st3" d="M31.8,73.4c0.4,0.7,0.6,1,0.9,1.7c0.1-0.8,0.1-1.1,0.2-1.9c0.3-0.1,0.5-0.1,0.8-0.2c0.2,1,0.3,1.5,0.5,2.5
			c-0.2,0-0.3,0.1-0.6,0.1c-0.1-0.3-0.1-0.4-0.1-0.7c-0.1-0.4-0.1-0.6-0.2-1c-0.1,0.7-0.1,1.1-0.2,1.8c-0.2,0-0.2,0.1-0.4,0.1
			c-0.4-0.6-0.6-0.9-1-1.6c0.1,0.4,0.2,0.6,0.3,1c0.1,0.3,0.1,0.4,0.2,0.7c-0.2,0.1-0.3,0.1-0.6,0.1c-0.2-1-0.4-1.5-0.6-2.5
			C31.3,73.6,31.5,73.5,31.8,73.4z"/>
		<path class="st3" d="M35.9,74.7c-0.3,0.1-0.5,0.1-0.8,0.1c0,0.2,0,0.3-0.1,0.5c-0.2,0-0.4,0.1-0.6,0.1c0.2-1.1,0.2-1.6,0.4-2.7
			c0.2,0,0.3-0.1,0.5-0.1c0.5,0.9,0.8,1.4,1.3,2.3c-0.2,0-0.4,0.1-0.6,0.1C36,74.9,36,74.8,35.9,74.7z M35.2,74.4
			c0.2,0,0.3-0.1,0.5-0.1c-0.2-0.3-0.3-0.5-0.4-0.8C35.2,73.8,35.2,74,35.2,74.4z"/>
		<path class="st3" d="M38.3,72.7c-0.3,0-0.4,0.1-0.7,0.1c0.1,0.8,0.2,1.2,0.3,2.1c-0.2,0-0.3,0.1-0.6,0.1c-0.1-0.8-0.2-1.2-0.3-2.1
			c-0.3,0-0.4,0.1-0.7,0.1c0-0.2,0-0.3-0.1-0.4c0.8-0.1,1.2-0.2,2-0.3C38.3,72.4,38.3,72.5,38.3,72.7z"/>
		<path class="st3" d="M40.7,73.6c0,0.3,0,0.5-0.2,0.7c-0.2,0.2-0.4,0.3-0.7,0.3c-0.3,0-0.6,0-0.8-0.2c-0.2-0.2-0.3-0.4-0.4-0.8
			c0-0.2,0-0.3-0.1-0.4c0-0.3,0-0.6,0.2-0.8c0.2-0.2,0.4-0.3,0.7-0.4c0.3,0,0.6,0,0.8,0.1s0.3,0.3,0.4,0.6c-0.2,0-0.4,0-0.6,0.1
			c0-0.2-0.1-0.3-0.1-0.4c-0.1-0.1-0.2-0.1-0.3-0.1c-0.2,0-0.3,0.1-0.3,0.2c-0.1,0.1-0.1,0.3,0,0.5c0,0.2,0,0.3,0.1,0.5
			c0,0.2,0.1,0.4,0.2,0.5c0.1,0.1,0.2,0.1,0.3,0.1c0.2,0,0.3-0.1,0.3-0.1c0-0.1,0.1-0.2,0.1-0.4C40.4,73.7,40.5,73.6,40.7,73.6z"/>
		<path class="st3" d="M43.2,74.2c-0.2,0-0.3,0-0.6,0.1c0-0.4-0.1-0.6-0.1-1.1c-0.3,0-0.5,0-0.9,0.1c0,0.4,0.1,0.6,0.1,1.1
			c-0.2,0-0.3,0-0.6,0.1c-0.1-1-0.2-1.5-0.3-2.5c0.2,0,0.4,0,0.6-0.1c0,0.4,0.1,0.6,0.1,1c0.3,0,0.5-0.1,0.9-0.1
			c0-0.4-0.1-0.6-0.1-1c0.2,0,0.4,0,0.6-0.1C43.1,72.7,43.1,73.2,43.2,74.2z"/>
		<path class="st3" d="M45.1,73c-0.4,0-0.5,0-0.9,0.1c0,0.3,0,0.4,0,0.7c0.4,0,0.6,0,1.1-0.1c0,0.2,0,0.3,0,0.4
			c-0.7,0-1,0.1-1.6,0.1c-0.1-1-0.1-1.5-0.2-2.5c0.7-0.1,1-0.1,1.7-0.1c0,0.2,0,0.3,0,0.4c-0.4,0-0.7,0-1.1,0.1c0,0.2,0,0.4,0,0.6
			c0.4,0,0.6,0,0.9-0.1C45.1,72.7,45.1,72.8,45.1,73z"/>
		<path class="st3" d="M46.8,73.3c0-0.1,0-0.2-0.1-0.2c-0.1-0.1-0.2-0.1-0.3-0.2c-0.3-0.1-0.5-0.2-0.6-0.3c-0.1-0.1-0.2-0.3-0.2-0.4
			c0-0.2,0.1-0.4,0.2-0.5c0.2-0.1,0.4-0.2,0.7-0.2c0.2,0,0.3,0,0.5,0.1c0.1,0.1,0.3,0.1,0.3,0.3c0.1,0.1,0.1,0.3,0.1,0.4
			c-0.2,0-0.4,0-0.6,0c0-0.1,0-0.2-0.1-0.3c-0.1-0.1-0.1-0.1-0.3-0.1c-0.1,0-0.2,0-0.2,0.1c-0.1,0.1-0.1,0.1-0.1,0.2
			c0,0.1,0,0.1,0.1,0.2c0.1,0.1,0.2,0.1,0.3,0.2c0.3,0.1,0.5,0.2,0.6,0.3c0.1,0.1,0.2,0.3,0.2,0.5c0,0.2-0.1,0.4-0.2,0.5
			S46.8,74,46.6,74c-0.2,0-0.4,0-0.5-0.1c-0.2-0.1-0.3-0.1-0.4-0.3c-0.1-0.1-0.1-0.3-0.2-0.4c0.2,0,0.4,0,0.6,0c0,0.1,0,0.3,0.1,0.3
			c0.1,0.1,0.2,0.1,0.3,0.1C46.7,73.6,46.8,73.5,46.8,73.3z"/>
		<path class="st3" d="M50.8,72.9c0,0.3-0.1,0.6-0.3,0.8c-0.2,0.2-0.4,0.3-0.8,0.3c-0.3,0-0.6-0.1-0.8-0.3c-0.2-0.2-0.3-0.4-0.3-0.8
			c0-0.2,0-0.3,0-0.4c0-0.3,0.1-0.6,0.3-0.8c0.2-0.2,0.4-0.3,0.8-0.3c0.3,0,0.6,0.1,0.8,0.3c0.2,0.2,0.3,0.5,0.3,0.8
			C50.8,72.7,50.8,72.7,50.8,72.9z M50.2,72.5c0-0.2,0-0.4-0.1-0.5c-0.1-0.1-0.2-0.2-0.4-0.2c-0.2,0-0.3,0.1-0.4,0.2
			c-0.1,0.1-0.1,0.3-0.1,0.5c0,0.2,0,0.3,0,0.5c0,0.2,0,0.4,0.1,0.5c0.1,0.1,0.2,0.2,0.3,0.2c0.2,0,0.3-0.1,0.3-0.2
			c0.1-0.1,0.1-0.3,0.1-0.5C50.2,72.8,50.2,72.7,50.2,72.5z"/>
		<path class="st3" d="M52.1,73.1c-0.1,0-0.2,0-0.3,0c0,0.4,0,0.6,0,0.9c-0.2,0-0.3,0-0.6,0c0-1,0-1.5,0.1-2.5c0.4,0,0.6,0,1,0
			c0.3,0,0.5,0.1,0.7,0.2c0.2,0.1,0.2,0.3,0.2,0.6c0,0.3-0.2,0.6-0.5,0.7c0.2,0.4,0.3,0.6,0.5,1.1c0,0,0,0,0,0c-0.2,0-0.4,0-0.6,0
			C52.3,73.6,52.3,73.4,52.1,73.1z M51.8,72.6c0.1,0,0.2,0,0.3,0c0.1,0,0.2,0,0.3-0.1c0.1-0.1,0.1-0.2,0.1-0.3
			c0-0.3-0.1-0.4-0.3-0.4c-0.1,0-0.2,0-0.3,0C51.8,72.2,51.8,72.3,51.8,72.6z"/>
		<path class="st3" d="M55.4,73.9C55.3,74,55.1,74,55,74.1c-0.2,0-0.3,0.1-0.5,0c-0.3,0-0.6-0.1-0.8-0.3c-0.2-0.2-0.3-0.5-0.2-0.8
			c0-0.2,0-0.3,0-0.5c0-0.3,0.1-0.6,0.3-0.8c0.2-0.2,0.5-0.3,0.8-0.2c0.3,0,0.6,0.1,0.7,0.3c0.2,0.1,0.2,0.4,0.2,0.7
			c-0.2,0-0.3,0-0.6,0c0-0.2,0-0.3-0.1-0.3C54.8,72,54.7,72,54.6,72c-0.2,0-0.3,0-0.4,0.1c-0.1,0.1-0.1,0.3-0.1,0.5
			c0,0.2,0,0.3,0,0.5c0,0.2,0,0.4,0.1,0.5c0.1,0.1,0.2,0.2,0.4,0.2c0.1,0,0.2,0,0.3,0c0,0,0,0,0.1,0c0-0.2,0-0.3,0-0.5
			c-0.2,0-0.2,0-0.4,0c0-0.2,0-0.2,0-0.4c0.4,0,0.6,0,1,0.1C55.5,73.3,55.4,73.5,55.4,73.9z"/>
		<path class="st3" d="M57.2,73.8c-0.3,0-0.5,0-0.8-0.1c-0.1,0.2-0.1,0.3-0.2,0.5c-0.2,0-0.4,0-0.6,0c0.4-1,0.7-1.5,1.1-2.4
			c0.2,0,0.3,0,0.5,0.1c0.3,1,0.4,1.6,0.7,2.6c-0.2,0-0.4,0-0.6-0.1C57.3,74.1,57.3,74,57.2,73.8z M56.6,73.3c0.2,0,0.3,0,0.5,0.1
			c-0.1-0.4-0.1-0.6-0.2-0.9C56.8,72.8,56.7,73,56.6,73.3z"/>
		<path class="st3" d="M60.2,74.7c-0.2,0-0.3,0-0.6-0.1c-0.3-0.7-0.4-1.1-0.6-1.8c-0.1,0.7-0.1,1-0.2,1.6c-0.2,0-0.3,0-0.6-0.1
			c0.1-1,0.2-1.5,0.3-2.5c0.2,0,0.4,0,0.6,0.1c0.3,0.7,0.4,1.1,0.7,1.8c0.1-0.7,0.1-1,0.2-1.6c0.2,0,0.4,0,0.6,0.1
			C60.4,73.2,60.3,73.7,60.2,74.7z"/>
		<path class="st3" d="M61.3,74.8c-0.2,0-0.3-0.1-0.6-0.1c0.1-1,0.2-1.5,0.4-2.5c0.2,0,0.4,0.1,0.6,0.1
			C61.5,73.3,61.4,73.8,61.3,74.8z"/>
		<path class="st3" d="M62.4,74.6c0.5,0.1,0.7,0.1,1.2,0.2c0,0.2,0,0.3-0.1,0.4c-0.7-0.1-1.1-0.2-1.8-0.3c0-0.1,0-0.2,0-0.3
			c0.6-0.6,0.9-1,1.5-1.6c-0.5-0.1-0.7-0.1-1.2-0.2c0-0.2,0-0.3,0.1-0.4c0.8,0.1,1.1,0.2,1.9,0.3c0,0.1,0,0.2-0.1,0.3
			C63.3,73.6,63,73.9,62.4,74.6z"/>
		<path class="st3" d="M65.6,74.5c-0.4-0.1-0.5-0.1-0.9-0.2c-0.1,0.3-0.1,0.4-0.1,0.7c0.4,0.1,0.6,0.1,1.1,0.2
			c0,0.2-0.1,0.2-0.1,0.4c-0.6-0.1-1-0.2-1.6-0.3c0.2-1,0.3-1.5,0.5-2.5c0.7,0.1,1,0.2,1.7,0.3c0,0.2-0.1,0.2-0.1,0.4
			c-0.4-0.1-0.6-0.1-1.1-0.2c0,0.2-0.1,0.4-0.1,0.6c0.4,0.1,0.5,0.1,0.9,0.2C65.6,74.2,65.6,74.3,65.6,74.5z"/>
		<path class="st3" d="M66.9,74.9c-0.1,0-0.2,0-0.3-0.1c-0.1,0.4-0.1,0.5-0.2,0.9c-0.2-0.1-0.3-0.1-0.6-0.1c0.2-1,0.3-1.5,0.5-2.5
			c0.4,0.1,0.6,0.1,0.9,0.2c0.3,0.1,0.5,0.2,0.6,0.4c0.1,0.2,0.2,0.4,0.1,0.6c-0.1,0.3-0.3,0.5-0.6,0.6c0.1,0.4,0.2,0.7,0.3,1.1
			c0,0,0,0,0,0c-0.2-0.1-0.4-0.1-0.6-0.1C67,75.5,67,75.3,66.9,74.9z M66.7,74.5c0.1,0,0.2,0,0.3,0.1c0.1,0,0.2,0,0.3,0
			c0.1-0.1,0.1-0.1,0.1-0.2c0.1-0.2,0-0.4-0.3-0.4c-0.1,0-0.2,0-0.3-0.1C66.8,74,66.8,74.2,66.7,74.5z"/>
	</g>
</g>
<g>
	<g>
		<path class="st3" d="M24.7,57.9c-1.1,0.2-1.7,0.3-2.8,0.6c0.4,1.7,0.6,2.6,1,4.3c-0.7,0.2-1,0.2-1.7,0.4c-1-4.2-1.5-6.3-2.5-10.6
			c2.1-0.5,3.1-0.7,5.1-1.1c0.1,0.7,0.2,1.1,0.4,1.8c-1.3,0.3-1.9,0.4-3.2,0.7c0.2,1.1,0.4,1.6,0.6,2.7c1.1-0.3,1.7-0.4,2.8-0.6
			C24.5,56.9,24.6,57.2,24.7,57.9z"/>
		<path class="st3" d="M32.4,56.6c0.2,1.4,0.1,2.6-0.4,3.5c-0.4,0.9-1.1,1.4-2.1,1.5c-1,0.2-1.8-0.1-2.5-0.8
			c-0.7-0.7-1.2-1.7-1.5-3.1c-0.1-0.7-0.2-1.1-0.3-1.8c-0.3-1.5-0.2-2.7,0.2-3.6c0.4-0.9,1.2-1.5,2.3-1.7c1-0.2,1.9,0.1,2.6,0.8
			c0.7,0.7,1.2,1.8,1.4,3.3C32.2,55.5,32.3,55.9,32.4,56.6z M30.3,55.1c-0.1-1-0.4-1.7-0.7-2.1c-0.3-0.4-0.7-0.6-1.2-0.5
			c-0.5,0.1-0.8,0.4-1,0.9c-0.2,0.5-0.2,1.2,0,2.1c0.1,0.8,0.2,1.1,0.3,1.9c0.2,0.9,0.4,1.6,0.7,2c0.3,0.4,0.7,0.6,1.2,0.5
			c0.5-0.1,0.8-0.3,0.9-0.8c0.2-0.5,0.2-1.2,0-2.1C30.4,56.2,30.4,55.8,30.3,55.1z"/>
		<path class="st3" d="M40,55.8c0.1,1.5-0.1,2.6-0.6,3.4c-0.5,0.9-1.2,1.3-2.2,1.4c-1,0.1-1.8-0.2-2.4-0.9c-0.7-0.7-1.1-1.8-1.3-3.2
			c-0.1-0.7-0.1-1.1-0.2-1.8c-0.2-1.5-0.1-2.7,0.4-3.6c0.5-0.9,1.3-1.4,2.3-1.5c1-0.1,1.9,0.2,2.6,1c0.7,0.8,1.1,1.9,1.2,3.4
			C39.9,54.7,39.9,55.1,40,55.8z M38,54.1c-0.1-1-0.3-1.7-0.6-2.1c-0.3-0.5-0.7-0.7-1.2-0.6c-0.5,0.1-0.8,0.3-1,0.8
			c-0.2,0.5-0.2,1.2-0.1,2.1c0.1,0.8,0.1,1.2,0.2,1.9c0.1,0.9,0.3,1.6,0.6,2c0.3,0.4,0.7,0.6,1.1,0.6c0.5,0,0.8-0.3,1-0.8
			c0.2-0.5,0.2-1.1,0.2-2.1C38.1,55.3,38.1,54.9,38,54.1z"/>
		<path class="st3" d="M46.5,50.9c-0.9,0-1.4,0-2.3,0.1c0.2,3.6,0.2,5.4,0.4,9c-0.7,0-1.1,0-1.8,0.1c-0.2-3.6-0.3-5.4-0.5-9
			c-0.9,0.1-1.4,0.1-2.3,0.2c-0.1-0.7-0.1-1.1-0.1-1.8c2.6-0.2,3.9-0.3,6.5-0.3C46.4,49.8,46.4,50.1,46.5,50.9z"/>
		<path class="st3" d="M49,56.1c-1.2,0-1.8,0-3,0.1c0-0.7,0-1.1-0.1-1.8c1.2,0,1.8,0,3.1-0.1C49,55,49,55.4,49,56.1z"/>
		<path class="st3" d="M53.1,49c0.6,3.2,0.9,4.7,1.5,7.9c0.8-3.1,1.2-4.7,2.1-7.8c1,0,1.5,0.1,2.5,0.1c-0.3,4.3-0.4,6.5-0.7,10.8
			c-0.7,0-1.1-0.1-1.8-0.1c0.1-1.2,0.1-1.8,0.2-2.9c0.2-1.8,0.2-2.7,0.4-4.5C56.3,55.5,55.9,57,55,60c-0.5,0-0.7,0-1.2,0
			c-0.6-3-0.9-4.5-1.6-7.5c0,1.8,0.1,2.7,0.1,4.5c0,1.2,0,1.8-0.1,2.9c-0.7,0-1.1,0-1.8,0c0-4.3,0-6.5,0-10.9
			C51.6,49,52.1,49,53.1,49z"/>
		<path class="st3" d="M66.5,56.5c-0.2,1.4-0.6,2.5-1.3,3.3c-0.7,0.7-1.5,1-2.4,0.9c-1-0.1-1.7-0.6-2.2-1.4c-0.5-0.8-0.7-2-0.6-3.4
			c0.1-0.7,0.1-1.1,0.1-1.8c0.1-1.5,0.5-2.6,1.2-3.4c0.7-0.8,1.5-1.1,2.6-1c1.1,0.1,1.8,0.6,2.3,1.5c0.5,0.9,0.6,2.1,0.5,3.5
			C66.6,55.4,66.6,55.7,66.5,56.5z M64.8,54.4c0.1-1,0.1-1.7-0.1-2.2c-0.2-0.5-0.5-0.8-1-0.8c-0.5-0.1-0.9,0.1-1.2,0.6
			c-0.3,0.4-0.5,1.1-0.6,2.1c-0.1,0.8-0.1,1.2-0.2,1.9c-0.1,0.9,0,1.7,0.2,2.1c0.2,0.5,0.5,0.7,1,0.8c0.5,0,0.8-0.1,1.1-0.5
			c0.3-0.4,0.5-1.1,0.6-2C64.7,55.6,64.8,55.2,64.8,54.4z"/>
		<path class="st3" d="M70.4,57.5c-0.4-0.1-0.5-0.1-0.9-0.1c-0.2,1.6-0.4,2.4-0.6,3.9c-0.7-0.1-1-0.2-1.7-0.3
			c0.6-4.3,0.9-6.4,1.5-10.7c1.2,0.2,1.8,0.3,3,0.5c0.9,0.2,1.6,0.6,2,1.2c0.4,0.7,0.5,1.5,0.3,2.5c-0.3,1.4-0.9,2.3-1.8,2.7
			c0.3,1.9,0.5,2.8,0.7,4.6c0,0,0,0.1,0,0.1c-0.7-0.1-1.1-0.2-1.9-0.3C70.8,60,70.7,59.2,70.4,57.5z M69.8,55.6
			c0.4,0.1,0.6,0.1,1,0.2c0.4,0.1,0.7,0,0.9-0.3c0.2-0.3,0.4-0.6,0.5-1.1c0.2-1.1-0.1-1.7-0.8-1.8c-0.4-0.1-0.7-0.1-1.1-0.2
			C70.1,53.7,70,54.3,69.8,55.6z"/>
		<path class="st3" d="M79.3,58.6c-1.1-0.3-1.7-0.4-2.8-0.6c-0.2,1.1-0.4,1.7-0.6,2.8c1.3,0.3,1.9,0.4,3.2,0.7
			c-0.2,0.7-0.3,1.1-0.4,1.8c-2-0.5-2.9-0.7-4.9-1.1c0.8-4.3,1.3-6.4,2.1-10.6c2.1,0.4,3.2,0.7,5.3,1.2c-0.2,0.7-0.3,1.1-0.4,1.8
			c-1.4-0.3-2-0.5-3.4-0.8c-0.2,1-0.3,1.5-0.5,2.5c1.1,0.2,1.7,0.4,2.8,0.6C79.6,57.5,79.5,57.9,79.3,58.6z"/>
	</g>
</g>
</svg>
